<svg id="Layer_1" data-name="Layer 1" xmlns="http://www.w3.org/2000/svg" viewBox="0 0 14 26"><defs><style>.cls-1{fill:#303635;}</style></defs><title>fb</title><g id="Layer_3" data-name="Layer 3"><path class="cls-1" d="M13.47,8H9.9c-.15,0-.23,0-.23-.2,0-.5,0-1,0-1.48,0-.19.05-.27.26-.26h3.27c.14,0,.23,0,.23-.19,0-1.93,0-3.86,0-5.79,0-.13-4.83,0-5.27.06A5.91,5.91,0,0,0,4.51,1.57a4.28,4.28,0,0,0-.9,1.29A6,6,0,0,0,3.08,5.4c0,.85,0,1.7,0,2.56H.52v5.86H.58c.79,0,1.57,0,2.36,0,0,0,.09,0,.11,0a.11.11,0,0,1,0,.08c0,.89,0,1.8,0,2.69V26H9.7V14.14c0-.38,0-.33.35-.34h2.64c.1,0,.19,0,.28,0s0-.07,0-.12C13.17,11.84,13.5,8,13.47,8Zm-1.86,2c-.07.63-.12,1.27-.17,1.9,0,.17-.08.21-.24.21h-3c-.2,0-.26,0-.26.25,0,2,0,3.91,0,5.86s0,3.89,0,5.83c0,.2,0,.26-.25.26-.87,0-1.74,0-2.62,0-.22,0-.28,0-.28-.28,0-3.85,0-7.7,0-11.56,0-.24,0-.32-.31-.31-.67,0-1.34,0-2,0-.15,0-.22,0-.22-.21,0-.66,0-1.33,0-2,0-.18.06-.22.22-.22.68,0,1.35,0,2,0,.26,0,.31-.07.31-.31,0-1.31,0-2.61,0-3.92A5.09,5.09,0,0,1,5,4,2.88,2.88,0,0,1,7.27,2a6.77,6.77,0,0,1,1.61-.21c.87,0,1.75,0,2.62,0,.16,0,.22,0,.22.21q0,1,0,2.07c0,.21-.08.24-.26.24H9.94A1.77,1.77,0,0,0,8,6.24c0,1.08,0,2.17,0,3.26,0,.2.1.2.24.2h3.19C11.57,9.69,11.64,9.73,11.61,10Z"/></g></svg>
