<svg id="Layer_1" data-name="Layer 1" xmlns="http://www.w3.org/2000/svg" viewBox="0 0 290 42"><defs><style>.cls-1{fill:#838686;}.cls-2{fill:#595e5d;}.cls-3{fill:none;stroke:#4d4f4e;stroke-miterlimit:10;stroke-width:2px;}</style></defs><title>logo-svp-gris</title><path class="cls-1" d="M15.55,6S5.27,10.74,9.35,19.17a84.24,84.24,0,0,0,5.56,6.64,41,41,0,0,1,4.34,5,5,5,0,0,1-1.15,7.48s-4,3.2-10.15-.38c0,0-4.28-2.36-4.54-9.58L.68,33.16s7.72,8.23,19.15,7.72c0,0,9.9-.7,10.15-8.24,0,0,.45-2.68-5-8,0,0-7.92-9-9.39-11.69C15.61,12.91,13.12,9,15.55,6Z"/><path class="cls-2" d="M30.58,36.53s10.23-4.9,6.05-13.28A85,85,0,0,0,31,16.67a40.8,40.8,0,0,1-4.4-4.93s-2.8-4.06.82-7.29c0,0,3.43-3.9,9.56-.79,0,0,3.49,1.69,3.57,5.07,0,1.56,0,2.45-2.49,6.6l8-7S44.51,8,41.15,5.53s-5.92-5-15.62-4.42c0,0-9.51,1.35-9.68,8.89,0,0-.42,2.69,5.07,8,0,0,8,8.92,9.52,11.58C30.44,29.57,33,33.44,30.58,36.53Z"/><line class="cls-3" x1="55.83" y1="0.55" x2="55.83" y2="41.9"/><path class="cls-2" d="M82,6.09l2.3-3.17S80-1.36,72.49.68c0,0-6.44,2-3.69,8.71,0,0,1.3,2.79,7.16,3.66,0,0,4.79.46,5.24,2.3,0,0,.55,2.37-2.78,3.27,0,0-3.4.91-8.23-2.72l-2.33,3.31a14.63,14.63,0,0,0,6.15,3s6.9,1.46,10-2.23a6.81,6.81,0,0,0,.26-7.61s-.84-2-5.89-3a26.17,26.17,0,0,1-5-1.3A1.84,1.84,0,0,1,73,4.86S76.7,2.14,82,6.09Z"/><path class="cls-2" d="M73,34l.78-1.07a4.17,4.17,0,0,0-4-.75,2.07,2.07,0,0,0-1.24,2.93S69,36,71,36.33c0,0,1.61.16,1.76.78,0,0,.19.79-.93,1.09a3.46,3.46,0,0,1-2.76-.91l-.79,1.11a5,5,0,0,0,2.07,1s2.32.49,3.37-.75a2.28,2.28,0,0,0,.09-2.55s-.29-.69-2-1a8.87,8.87,0,0,1-1.68-.43A.62.62,0,0,1,70,33.58S71.24,32.67,73,34Z"/><polygon class="cls-2" points="110.47 4.15 110.47 0.43 94.54 0.43 94.54 22.12 110.47 22.12 110.47 18.43 98.65 18.43 98.65 13.25 109.11 13.25 109.11 9.49 98.65 9.49 98.65 4.12 110.47 4.15"/><polygon class="cls-2" points="110.61 33.36 110.61 32.12 105.33 32.12 105.33 39.31 110.61 39.31 110.61 38.08 106.7 38.08 106.7 36.37 110.16 36.37 110.16 35.13 106.7 35.13 106.7 33.35 110.61 33.36"/><polygon class="cls-2" points="119.96 22.02 124.07 22.02 124.07 11.27 130.77 19.27 137.6 11.27 137.6 22.02 141.69 22.02 141.69 0.56 141.46 0.56 130.82 13.02 120.22 0.56 119.96 0.56 119.96 22.02"/><rect class="cls-2" x="152.86" y="0.56" width="4.18" height="21.53"/><rect class="cls-2" x="133.94" y="27.58" width="1.91" height="11.78"/><rect class="cls-2" x="214.89" y="27.57" width="1.91" height="11.78"/><rect class="cls-2" x="252.84" y="0.46" width="4.18" height="21.53"/><polygon class="cls-2" points="168.27 22.05 172.31 22.05 172.31 9.23 186.56 22.05 187.01 22.05 187.01 0.52 182.87 0.52 182.87 13.54 168.66 0.52 168.27 0.52 168.27 22.05"/><polygon class="cls-2" points="195.3 22.05 199.84 22.05 206.6 8.49 213.37 22.05 217.84 22.05 206.8 0.52 206.34 0.52 195.3 22.05"/><path class="cls-2" d="M235.39.43c7.61.87,6.9,7.35,6.9,7.35a7.07,7.07,0,0,1-4.47,7L243.16,22h-4.92l-5-6.83h-4.17V22h-4.05V.43Zm-6.28,3.69V11.6h6.31a3.72,3.72,0,0,0,2.79-3.89s.06-3.59-3-3.59Z"/><path class="cls-2" d="M99.75,32.12A2.27,2.27,0,0,1,102,34.57a2.34,2.34,0,0,1-1.49,2.32l1.78,2.41h-1.64L99.05,37H97.66V39.3H96.31V32.12Zm-2.09,1.23v2.49h2.1a1.23,1.23,0,0,0,.92-1.29s0-1.2-1-1.2Z"/><path class="cls-2" d="M289.32,11.27A11.17,11.17,0,1,1,278.16.1,11.17,11.17,0,0,1,289.32,11.27ZM278.16,3.94A7.3,7.3,0,0,0,271,11.37a7.16,7.16,0,1,0,14.32,0A7.3,7.3,0,0,0,278.16,3.94Z"/><path class="cls-2" d="M152.75,33.46a5.89,5.89,0,1,1-5.89-5.89A5.88,5.88,0,0,1,152.75,33.46Zm-5.89-3.87a3.92,3.92,0,1,0,3.78,3.92A3.86,3.86,0,0,0,146.86,29.59Z"/><path class="cls-2" d="M84.4,35.67a3.76,3.76,0,1,1-3.76-3.76A3.76,3.76,0,0,1,84.4,35.67ZM80.64,33.2a2.5,2.5,0,1,0,2.41,2.5A2.46,2.46,0,0,0,80.64,33.2Z"/><path class="cls-2" d="M90.94,32.12c1.9.1,1.82,1.58,1.82,1.58.13,1.69-1.13,1.83-1.13,1.83a1.73,1.73,0,0,1,1.47,1.78,2,2,0,0,1-2.23,2H87.54V32.12Zm-2,1.22V35h1.7a.8.8,0,0,0,.81-.85s0-.85-.67-.85Zm0,2.9v1.85h1.89a.88.88,0,0,0,.9-.93.86.86,0,0,0-.84-.92Z"/><polygon class="cls-2" points="117.76 27.58 122.45 39.34 124.44 39.34 129.13 27.58 127.03 27.58 123.45 36.91 119.78 27.58 117.76 27.58"/><polygon class="cls-2" points="157.76 27.58 157.76 39.34 165.69 39.34 165.69 37.55 159.67 37.55 159.67 27.58 157.76 27.58"/><polygon class="cls-2" points="170.48 27.58 170.48 39.36 178.4 39.36 178.4 37.57 172.41 37.57 172.41 33.76 176.9 33.76 176.9 31.98 172.39 31.98 172.39 29.34 178.4 29.34 178.4 27.58 170.48 27.58"/><polygon class="cls-2" points="183.07 27.58 183.07 39.35 185.01 39.35 185.01 30.99 192.25 39.35 193.24 39.35 193.24 27.58 191.28 27.58 191.28 35.94 184.13 27.58 183.07 27.58"/><path class="cls-2" d="M208,32.29a3.87,3.87,0,0,0-7.59.35,4.53,4.53,0,0,0,1.48,4.18,4,4,0,0,0,3.39.63A4.13,4.13,0,0,0,208,34.64l1.85.6a5.41,5.41,0,0,1-4.09,4s-3.29.72-5.27-1.1a6.08,6.08,0,0,1-2.13-5.71,6,6,0,0,1,3.27-4.28,6.44,6.44,0,0,1,5.59.22,5.68,5.68,0,0,1,2.63,3.38Z"/><polygon class="cls-2" points="221.61 39.33 223.57 39.33 227.21 29.84 230.89 39.33 232.8 39.33 228.15 27.58 226.24 27.58 221.61 39.33"/><polygon class="cls-2" points="263.65 39.33 265.61 39.33 269.26 29.84 272.93 39.33 274.84 39.33 270.2 27.58 268.29 27.58 263.65 39.33"/><polygon class="cls-2" points="237.09 27.58 241.09 34.52 241.09 39.36 242.54 39.36 242.54 34.49 246.59 27.58 244.97 27.58 241.84 33.11 238.72 27.58 237.09 27.58"/><path class="cls-2" d="M258.31,27.58a3.24,3.24,0,0,1,3.21,3.2,3.35,3.35,0,0,1-2.93,3.51h-4.08v5.07h-1.93V27.58Zm-3.83,1.74v3.26h3.64A1.83,1.83,0,0,0,259.69,31a1.88,1.88,0,0,0-1.7-1.63Z"/><polygon class="cls-2" points="279.41 27.58 279.41 29.39 285.82 29.39 279.41 38.42 279.41 39.35 288.49 39.35 288.49 37.51 282.08 37.51 288.49 28.51 288.49 27.58 279.41 27.58"/></svg>