<svg id="Layer_1" data-name="Layer 1" xmlns="http://www.w3.org/2000/svg" viewBox="0 0 214 66"><defs><style>.cls-1{fill:#4d4f4e;}</style></defs><title>logo-colmex-gris</title><path class="cls-1" d="M202.8,25.83v-1l.23,0a7.72,7.72,0,0,0,6.08-2.54,10,10,0,0,0,2.22-6.88,12,12,0,0,0-.57-3.69,13.69,13.69,0,0,0-1.67-3.49,8,8,0,0,0-2.84-2.7,7.73,7.73,0,0,0-3.45-.92V3.51a11.6,11.6,0,0,1,4.42.82,9.49,9.49,0,0,1,3.46,2.39,10.56,10.56,0,0,1,2.17,3.49,12,12,0,0,1,.75,4.23,13,13,0,0,1-.7,4.18,10.79,10.79,0,0,1-2,3.46,10.56,10.56,0,0,1-3.62,2.8,10.32,10.32,0,0,1-4.44.95Zm0-22.32V4.58h-.3a7.65,7.65,0,0,0-6,2.52,9.62,9.62,0,0,0-2.24,6.65,13.19,13.19,0,0,0,.47,3.54,14.23,14.23,0,0,0,1.45,3.36,8.33,8.33,0,0,0,2.94,3.08,7.12,7.12,0,0,0,3.66,1.05v1A10.39,10.39,0,0,1,195,22.74a11.12,11.12,0,0,1-3-8,11.4,11.4,0,0,1,.8-4.3,11.56,11.56,0,0,1,2.34-3.65,10,10,0,0,1,3.44-2.39,10.81,10.81,0,0,1,4.16-.84M115.1,25.83v-1l.22,0a7.72,7.72,0,0,0,6.06-2.54,10,10,0,0,0,2.25-6.88,13,13,0,0,0-.58-3.69,13.36,13.36,0,0,0-1.67-3.49,8.37,8.37,0,0,0-2.84-2.7,7.87,7.87,0,0,0-3.44-.92V3.51a11.37,11.37,0,0,1,4.39.82A9.77,9.77,0,0,1,123,6.72a10.33,10.33,0,0,1,2.14,3.49,12,12,0,0,1,.75,4.23,12.48,12.48,0,0,1-.7,4.18,11.13,11.13,0,0,1-2,3.46,10.85,10.85,0,0,1-3.62,2.8,10.37,10.37,0,0,1-4.43.95Zm15.18-4.64V8a5.25,5.25,0,0,0-.2-1.86,2.21,2.21,0,0,0-.67-.89,3.64,3.64,0,0,0-.47-.28,1.7,1.7,0,0,0-.58-.13.1.1,0,0,0-.07,0c-.3-.08-.45-.23-.45-.41A.45.45,0,0,1,128,4a.85.85,0,0,1,.45-.1c.1,0,.45,0,1.1.1s1.2.08,1.72.08A25.71,25.71,0,0,0,134,4a1.67,1.67,0,0,1,.3,0,.46.46,0,0,1,.32.1.45.45,0,0,1,.1.31c0,.2-.2.38-.62.53h0a.55.55,0,0,1-.2.08,2.25,2.25,0,0,0-.62.36,1.82,1.82,0,0,0-.53.86A7.45,7.45,0,0,0,132.57,8V22.16a1.82,1.82,0,0,0,.48,1.5,3,3,0,0,0,1.84.41,14.49,14.49,0,0,0,3.54-.41,8.47,8.47,0,0,0,2.7-1,5.61,5.61,0,0,0,1.12-1.07c.35-.46.57-.66.7-.66a.15.15,0,0,1,.17.13.86.86,0,0,1,.08.38,3.18,3.18,0,0,1-.28,1.15,5,5,0,0,1-.72,1.32A3.65,3.65,0,0,1,140.83,25a4.25,4.25,0,0,1-2,.36l-2.19-.08c-1.22-.08-2.35-.1-3.32-.1-1.59,0-3.11,0-4.54.18h-.35a.23.23,0,0,1-.19-.1.32.32,0,0,1-.1-.26.5.5,0,0,1,.1-.31,1.26,1.26,0,0,1,.47-.3.08.08,0,0,1,.07,0,2.28,2.28,0,0,0,1.28-1.47,6.14,6.14,0,0,0,.17-1.71m16.23,0V8a5.86,5.86,0,0,0-.2-1.83,2,2,0,0,0-.67-.92,1.27,1.27,0,0,0-.43-.23,3.33,3.33,0,0,0-.62-.18,1.77,1.77,0,0,1-.5-.15A.38.38,0,0,1,144,4.4c0-.18.05-.31.12-.36a.87.87,0,0,1,.45-.1,2.8,2.8,0,0,1,.4,0c1.62.1,3.31.15,5.08.15,2.18,0,4.32-.08,6.49-.23l.73-.05a.69.69,0,0,1,.47.13.84.84,0,0,1,.1.48v.21s0,0,0,0v.14l-.2,2.51a2.12,2.12,0,0,1-.1.5.29.29,0,0,1-.24.13.38.38,0,0,1-.3-.13.61.61,0,0,1-.11-.4V7.28a.53.53,0,0,0,0-.18,1.64,1.64,0,0,0-.77-1.55,6.16,6.16,0,0,0-2.87-.46h-2.07a4.63,4.63,0,0,0-1.89.25,1.09,1.09,0,0,0-.43,1v6.27c0,.56.08.89.2,1a1.22,1.22,0,0,0,.82.18h2.45a6.23,6.23,0,0,0,2-.23,1.82,1.82,0,0,0,1-.74,3.7,3.7,0,0,0,.32-.84c.13-.38.28-.56.45-.56a.26.26,0,0,1,.25.18.82.82,0,0,1,.1.48c0,.05,0,.38,0,1s-.07,1.23-.07,1.82a14.25,14.25,0,0,0,.12,1.78,2.12,2.12,0,0,1,0,.3.69.69,0,0,1-.12.46.3.3,0,0,1-.27.18c-.25,0-.4-.23-.47-.71-.06-.33-.11-.59-.15-.77a1.63,1.63,0,0,0-.88-.89,5.54,5.54,0,0,0-2-.25h-2.82a1,1,0,0,0-.72.17,1.33,1.33,0,0,0-.18.82v6.22a1.94,1.94,0,0,0,.5,1.53,3.42,3.42,0,0,0,1.94.38,13.87,13.87,0,0,0,3.47-.41,8.63,8.63,0,0,0,2.69-1.05,4.2,4.2,0,0,0,1.08-1.07c.35-.43.57-.63.67-.63a.2.2,0,0,1,.2.13.86.86,0,0,1,.07.38,3.55,3.55,0,0,1-.27,1.12,6,6,0,0,1-.67,1.22,4.1,4.1,0,0,1-1.4,1.23,4.5,4.5,0,0,1-1.84.35l-2.05-.07c-1.17-.08-2.22-.11-3.2-.11-1.71,0-3.33.05-4.86.18a3,3,0,0,1-.42,0,.34.34,0,0,1-.2-.1.37.37,0,0,1-.12-.26.46.46,0,0,1,.12-.31c.05-.1.2-.17.45-.3a.06.06,0,0,0,0,0,2,2,0,0,0,.77-.51,2.06,2.06,0,0,0,.55-.94,7,7,0,0,0,.15-1.73m30.62-.82V16.76a1.73,1.73,0,0,0-.25-1,1.65,1.65,0,0,0-.77-.66,1.78,1.78,0,0,0-.55-.13h0a1.87,1.87,0,0,1-.55-.18.36.36,0,0,1-.12-.28.5.5,0,0,1,.1-.36,1.13,1.13,0,0,1,.5-.08l1.12.08a16.33,16.33,0,0,0,1.95.1,12.88,12.88,0,0,0,1.64-.1l.25,0a.17.17,0,0,0,.1,0,.55.55,0,0,1,.17,0,.34.34,0,0,1,.23.08.44.44,0,0,1,.07.26.53.53,0,0,1-.07.3,1.76,1.76,0,0,1-.36.26.26.26,0,0,0-.19.07,1.24,1.24,0,0,0-.2.1,1.17,1.17,0,0,0-.42.62,2.5,2.5,0,0,0-.16,1v4.71a1.33,1.33,0,0,0,0,.28v.36c0,.35-.22.63-.72.84a5.19,5.19,0,0,0-.6.32l-.3.19a14.87,14.87,0,0,1-7.23,2.32,9.33,9.33,0,0,1-7.23-2.94A11.07,11.07,0,0,1,160.85,15a13.29,13.29,0,0,1,.77-4.64,11.17,11.17,0,0,1,2.32-3.79,8.77,8.77,0,0,1,3.19-2.22,10.56,10.56,0,0,1,4.09-.72,12.8,12.8,0,0,1,5.33,1.2c.25.11.58.28,1,.51a1.89,1.89,0,0,0,.85.36.9.9,0,0,0,.35-.13.68.68,0,0,1,.32-.13.2.2,0,0,1,.2.13,1.44,1.44,0,0,1,.1.46l.3,3.18a.92.92,0,0,1,0,.28,1.78,1.78,0,0,1,0,.36.71.71,0,0,1-.07.38.32.32,0,0,1-.28.11c-.2,0-.42-.33-.69-1a9.23,9.23,0,0,0-.9-1.61,8.52,8.52,0,0,0-6.68-3.31,7.07,7.07,0,0,0-5.64,2.6,10,10,0,0,0-2.19,6.7,12.62,12.62,0,0,0,2.34,7.85,7.16,7.16,0,0,0,5.93,3.08,7.65,7.65,0,0,0,2.35-.38A7,7,0,0,0,176,23.22a2.57,2.57,0,0,0,.88-1.09,5,5,0,0,0,.27-1.76m8,.82V8a5,5,0,0,0-.21-1.83,1.81,1.81,0,0,0-.67-.89,2.13,2.13,0,0,0-1-.44h0a1.17,1.17,0,0,1-.52-.17.42.42,0,0,1-.13-.31.37.37,0,0,1,.15-.33.92.92,0,0,1,.45-.08c.07,0,.45,0,1.1.1s1.29.08,1.89.08a29.54,29.54,0,0,0,3-.15,1.67,1.67,0,0,1,.29,0,.56.56,0,0,1,.35.1.46.46,0,0,1,.13.31.34.34,0,0,1-.13.28,1,1,0,0,1-.57.25,4,4,0,0,0-.62.23,2.37,2.37,0,0,0-.4.28,1.66,1.66,0,0,0-.52.79A6.93,6.93,0,0,0,187.47,8V21.21a6.83,6.83,0,0,0,.2,1.89,2,2,0,0,0,.73,1,2.22,2.22,0,0,0,1,.41l.05,0a1.22,1.22,0,0,1,.53.16.41.41,0,0,1,.12.3.36.36,0,0,1-.12.33,1.07,1.07,0,0,1-.5.08c-.3,0-.8,0-1.52-.08a14.89,14.89,0,0,0-1.7-.1,26.13,26.13,0,0,0-2.77.15,2.24,2.24,0,0,1-.35,0,.58.58,0,0,1-.37-.1.39.39,0,0,1-.13-.28c0-.21.21-.41.58-.57l.08,0a1.75,1.75,0,0,0,.52-.23,2.11,2.11,0,0,0,.45-.31,2.31,2.31,0,0,0,.62-.91,5.79,5.79,0,0,0,.18-1.76m-139.37,0V8a5.86,5.86,0,0,0-.2-1.83,2,2,0,0,0-.68-.92A1.32,1.32,0,0,0,44.44,5a3.33,3.33,0,0,0-.62-.18,1.39,1.39,0,0,1-.5-.15.39.39,0,0,1-.13-.28c0-.18.06-.31.13-.36a.82.82,0,0,1,.45-.1,3.08,3.08,0,0,1,.4,0c1.6.1,3.29.15,5.08.15,2.17,0,4.31-.08,6.49-.23l.69-.05a.67.67,0,0,1,.48.13.82.82,0,0,1,.12.48v.21a.08.08,0,0,0,0,0,.61.61,0,0,0,0,.14l-.2,2.51a1.08,1.08,0,0,1-.1.5.26.26,0,0,1-.25.13.31.31,0,0,1-.27-.13.68.68,0,0,1-.1-.4V7.28a.53.53,0,0,0,0-.18,1.68,1.68,0,0,0-.78-1.55,6.11,6.11,0,0,0-2.86-.46h-2.1a4.61,4.61,0,0,0-1.87.25,1.11,1.11,0,0,0-.42,1v6.27a1.74,1.74,0,0,0,.17,1c.13.13.4.18.85.18h2.44a6.39,6.39,0,0,0,2-.23,1.69,1.69,0,0,0,1-.74,4,4,0,0,0,.35-.84c.1-.38.25-.56.45-.56s.17,0,.24.18a1,1,0,0,1,.1.48c0,.05,0,.38-.07,1s-.05,1.23-.05,1.82a16.45,16.45,0,0,0,.12,1.78,2.86,2.86,0,0,0,0,.3.83.83,0,0,1-.13.46.3.3,0,0,1-.27.18c-.25,0-.4-.23-.47-.71a3.24,3.24,0,0,0-.18-.77,1.45,1.45,0,0,0-.87-.89,5.32,5.32,0,0,0-2-.25H49c-.38,0-.63.05-.73.17s-.17.39-.17.82v6.22a1.91,1.91,0,0,0,.5,1.53,3.42,3.42,0,0,0,1.94.38A14,14,0,0,0,54,23.66a8.69,8.69,0,0,0,2.7-1.05,4.17,4.17,0,0,0,1.07-1.07c.33-.43.55-.63.67-.63a.19.19,0,0,1,.2.13.86.86,0,0,1,.08.38,3,3,0,0,1-.3,1.12,4.83,4.83,0,0,1-.65,1.22A4.34,4.34,0,0,1,56.31,25a4.27,4.27,0,0,1-1.82.35l-2-.07c-1.18-.08-2.23-.11-3.2-.11-1.72,0-3.33.05-4.86.18a3,3,0,0,1-.42,0c-.08,0-.12,0-.2-.1a.35.35,0,0,1-.13-.26.5.5,0,0,1,.11-.31,1.53,1.53,0,0,1,.44-.3.09.09,0,0,0,.08,0,2,2,0,0,0,.77-.51,2.36,2.36,0,0,0,.55-.94,7,7,0,0,0,.15-1.73M115.1,3.51V4.58h-.33a7.58,7.58,0,0,0-6,2.52,9.59,9.59,0,0,0-2.27,6.65,13.21,13.21,0,0,0,.49,3.54,13.45,13.45,0,0,0,1.45,3.36,8.28,8.28,0,0,0,2.92,3.08,7.12,7.12,0,0,0,3.69,1.05v1a10.37,10.37,0,0,1-7.78-3.09,11,11,0,0,1-3-8,12,12,0,0,1,.8-4.3,11.12,11.12,0,0,1,2.36-3.65,10.12,10.12,0,0,1,3.44-2.39,10.71,10.71,0,0,1,4.17-.84M62.67,21.19V8a5.79,5.79,0,0,0-.2-1.86,2.24,2.24,0,0,0-.68-.89A3.07,3.07,0,0,0,61.32,5a1.82,1.82,0,0,0-.57-.13.13.13,0,0,0-.08,0c-.3-.08-.45-.23-.45-.41s0-.31.11-.36a.85.85,0,0,1,.47-.1c.1,0,.45,0,1.07.1s1.22.08,1.74.08A25.57,25.57,0,0,0,66.38,4a1.82,1.82,0,0,1,.3,0A.47.47,0,0,1,67,4a.4.4,0,0,1,.1.31c0,.2-.2.38-.62.53h0l-.2.08a2,2,0,0,0-.63.36,1.8,1.8,0,0,0-.52.86A7.45,7.45,0,0,0,65,8V22.16a1.86,1.86,0,0,0,.47,1.5,2.94,2.94,0,0,0,1.85.41,14.25,14.25,0,0,0,3.51-.41,8.8,8.8,0,0,0,2.72-1,5.36,5.36,0,0,0,1.12-1.07c.35-.46.58-.66.7-.66s.13,0,.17.13a.74.74,0,0,1,.08.38,3.89,3.89,0,0,1-.27,1.15,6,6,0,0,1-.72,1.32A3.68,3.68,0,0,1,73.21,25a4.34,4.34,0,0,1-1.94.36l-2.2-.08c-1.24-.08-2.34-.1-3.31-.1-1.62,0-3.14,0-4.54.18h-.35a.25.25,0,0,1-.2-.1.35.35,0,0,1-.1-.26.45.45,0,0,1,.1-.31,1.16,1.16,0,0,1,.48-.3s0,0,.07,0a2.92,2.92,0,0,0,.72-.51,2.53,2.53,0,0,0,.56-1,6.14,6.14,0,0,0,.17-1.71m39.12,2.09a11.6,11.6,0,0,1-3.52,1.84,14.44,14.44,0,0,1-4.27.61,9.75,9.75,0,0,1-7.42-2.88A11.14,11.14,0,0,1,83.86,15a13,13,0,0,1,.8-4.63,10.81,10.81,0,0,1,2.27-3.77,9,9,0,0,1,3.14-2.2,10.89,10.89,0,0,1,4.09-.74,12,12,0,0,1,2.57.28,13.22,13.22,0,0,1,2.44.82,8.2,8.2,0,0,1,1.19.71,2.2,2.2,0,0,0,.85.49.85.85,0,0,0,.38-.15.81.81,0,0,1,.32-.13.24.24,0,0,1,.2.15,1.52,1.52,0,0,1,.1.46l.27,3.16a.72.72,0,0,1,0,.25,1.89,1.89,0,0,1,0,.36.81.81,0,0,1-.07.41.28.28,0,0,1-.25.1c-.23,0-.48-.31-.73-.89a10,10,0,0,0-.44-1,9.4,9.4,0,0,0-3-3.1,7,7,0,0,0-3.82-1.1A7.14,7.14,0,0,0,88.52,7a10.08,10.08,0,0,0-2.17,6.71,12.6,12.6,0,0,0,2.3,7.84,7,7,0,0,0,5.83,3.09A8.59,8.59,0,0,0,97.62,24a9.1,9.1,0,0,0,2.77-1.81,6.88,6.88,0,0,0,1-1.43c.35-.61.59-.92.77-.92a.18.18,0,0,1,.17.13.57.57,0,0,1,.08.31.53.53,0,0,1,0,.18,1,1,0,0,1-.05.3Z"/><path class="cls-1" d="M202.08,57.85v-1h.25a8.55,8.55,0,0,0,6.49-2.53,9.71,9.71,0,0,0,2.36-6.87,11.22,11.22,0,0,0-.62-3.7,12.48,12.48,0,0,0-1.77-3.49,8.33,8.33,0,0,0-3-2.7,8.16,8.16,0,0,0-3.69-.92V35.53a13.82,13.82,0,0,1,4.72.79,11,11,0,0,1,3.69,2.42,10.37,10.37,0,0,1,2.32,3.47,11.87,11.87,0,0,1,0,8.41,10.51,10.51,0,0,1-2.11,3.48,11.3,11.3,0,0,1-3.87,2.78,11.62,11.62,0,0,1-4.72,1ZM54.79,56.12A8,8,0,0,0,59.45,54a8.8,8.8,0,0,0,2.32-6.55,10.37,10.37,0,0,0-2.94-7.74,9.55,9.55,0,0,0-4-2.35V36.17a12,12,0,0,1,6.08,2.57,9.4,9.4,0,0,1,3.24,7.59,10.22,10.22,0,0,1-3.31,8,11.61,11.61,0,0,1-6,2.78ZM202.08,35.53V36.6l-.32,0a8.36,8.36,0,0,0-6.36,2.52A9.17,9.17,0,0,0,193,45.75a12.39,12.39,0,0,0,.52,3.57,13.3,13.3,0,0,0,1.54,3.36,8.91,8.91,0,0,0,3.12,3.08,8.07,8.07,0,0,0,3.91,1.05v1a11.54,11.54,0,0,1-8.27-3.08,10.64,10.64,0,0,1-3.2-8.08,10.9,10.9,0,0,1,.85-4.28A11,11,0,0,1,194,38.77a10.91,10.91,0,0,1,3.67-2.42,12.11,12.11,0,0,1,4.43-.82M68.68,53.19V40a5.91,5.91,0,0,0-.21-1.84,2.09,2.09,0,0,0-.72-.91,2.68,2.68,0,0,0-.47-.26,6.12,6.12,0,0,0-.67-.18,1.16,1.16,0,0,1-.53-.15A.35.35,0,0,1,66,36.4c0-.15.05-.28.15-.33s.22-.1.44-.13L67,36c1.73.1,3.52.16,5.42.16q3.47,0,6.9-.23a5.38,5.38,0,0,1,.77-.06.77.77,0,0,1,.5.13.8.8,0,0,1,.13.49v.17a.09.09,0,0,1,0,.08v.15l-.22,2.5a1.46,1.46,0,0,1-.1.48c-.05.1-.15.13-.28.16a.4.4,0,0,1-.32-.16.75.75,0,0,1-.1-.4.5.5,0,0,1,0-.18v-.15a1.6,1.6,0,0,0-.83-1.56,7,7,0,0,0-3-.46H73.61a5,5,0,0,0-2,.25,1,1,0,0,0-.45,1V44.6a1.6,1.6,0,0,0,.2,1,1.52,1.52,0,0,0,.9.19h2.62A6.81,6.81,0,0,0,77,45.54a2,2,0,0,0,1-.76,3,3,0,0,0,.35-.81c.13-.39.28-.59.48-.59a.34.34,0,0,1,.27.18.86.86,0,0,1,.1.48c0,.05,0,.38,0,1s-.07,1.22-.07,1.81a15.78,15.78,0,0,0,.12,1.76,1.84,1.84,0,0,1,0,.33.71.71,0,0,1-.13.46.34.34,0,0,1-.3.18c-.25,0-.42-.26-.5-.72a3.1,3.1,0,0,0-.17-.76,1.58,1.58,0,0,0-.92-.92,7.09,7.09,0,0,0-2.12-.26h-3a1.22,1.22,0,0,0-.77.19,1.38,1.38,0,0,0-.18.81v6.22a1.78,1.78,0,0,0,.53,1.52,3.8,3.8,0,0,0,2.09.39,17.1,17.1,0,0,0,3.69-.39,9.37,9.37,0,0,0,2.87-1.06,4.86,4.86,0,0,0,1.14-1c.35-.43.6-.66.73-.66a.24.24,0,0,1,.2.15.75.75,0,0,1,.07.38,3.12,3.12,0,0,1-.3,1.12,5,5,0,0,1-.7,1.22A5.09,5.09,0,0,1,80,57a4.85,4.85,0,0,1-2,.36c-.2,0-.92,0-2.17-.11s-2.37-.07-3.41-.07c-1.82,0-3.57.05-5.19.18-.25,0-.4,0-.45,0a.37.37,0,0,1-.23-.13.3.3,0,0,1-.09-.22.53.53,0,0,1,.09-.33,1.45,1.45,0,0,1,.48-.28s0,0,.08,0a2.2,2.2,0,0,0,.82-.54A2,2,0,0,0,68.5,55a7,7,0,0,0,.18-1.76m28-10.6a1.15,1.15,0,0,0-.19-.28c-.08-.08-.13-.1-.18-.1s-.2.28-.27.86-.13,1.69-.18,3.34l-.17,4.05c0,.33,0,.72,0,1.07v1.56a6.7,6.7,0,0,0,.25,2.11,2.32,2.32,0,0,0,.95,1,2.28,2.28,0,0,0,.85.3h.07c.47.1.7.28.7.51a.33.33,0,0,1-.18.28,1.1,1.1,0,0,1-.47.1l-.58,0c-1-.08-2-.13-2.89-.13a11.59,11.59,0,0,0-1.29.08,6.7,6.7,0,0,1-.7.1.45.45,0,0,1-.35-.15.37.37,0,0,1-.17-.31.41.41,0,0,1,.07-.25.29.29,0,0,1,.18-.15.13.13,0,0,0,.09,0l.13,0a3.3,3.3,0,0,0,1.12-.54,1.66,1.66,0,0,0,.4-.74,24.86,24.86,0,0,0,.65-4.76c.22-2.53.32-5.28.32-8.21A10.47,10.47,0,0,0,94.41,39a3.29,3.29,0,0,0-1.23-1.78,2.08,2.08,0,0,0-.72-.3h0s0,0,0,0c-.38-.1-.55-.25-.55-.48a.35.35,0,0,1,.15-.31.86.86,0,0,1,.47-.1,5.64,5.64,0,0,1,.75,0c.41,0,.78.05,1.08.05h.24a.39.39,0,0,1,.15,0H95a1.41,1.41,0,0,1,1.45.73l0,0,7.76,15.8.2.28a.43.43,0,0,0,.22.1.34.34,0,0,0,.23-.13,2.57,2.57,0,0,0,.22-.33l8.23-15.92a.35.35,0,0,0,.07-.11.74.74,0,0,1,.72-.4h.68a8,8,0,0,0,1-.08,5.66,5.66,0,0,1,.72,0,1,1,0,0,1,.5.1.29.29,0,0,1,.18.28c0,.23-.2.38-.6.51a1.9,1.9,0,0,0-.47.08,1.16,1.16,0,0,0-.33.18,1.69,1.69,0,0,0-.7.76,3.22,3.22,0,0,0-.2,1.33v.38l.33,13.63v.2c0,1.51.4,2.45,1.12,2.78a3.6,3.6,0,0,0,.65.23s.07,0,.1,0h0c.38.1.58.23.58.4a.36.36,0,0,1-.2.33,1,1,0,0,1-.53.11c-.25,0-.74,0-1.47-.06s-1.37,0-1.85,0-1,0-1.49.08a8.22,8.22,0,0,1-.82.1.68.68,0,0,1-.35-.07.3.3,0,0,1-.13-.26.37.37,0,0,1,.13-.33,1.57,1.57,0,0,1,.55-.25l.12,0a.94.94,0,0,0,.25-.11,1.28,1.28,0,0,0,.7-.69,3.2,3.2,0,0,0,.23-1.42,5.49,5.49,0,0,0,0-.59V53l-.2-9.63a4.92,4.92,0,0,0-.12-1.12c-.06-.23-.15-.33-.25-.33s-.23.07-.38.25a2.88,2.88,0,0,0-.47.77L104.6,56a2.09,2.09,0,0,1-.35.54.47.47,0,0,1-.35.15.5.5,0,0,1-.37-.18,1.72,1.72,0,0,1-.33-.51Zm25.63,10.6V40a6,6,0,0,0-.2-1.84,2.09,2.09,0,0,0-.72-.91,1.91,1.91,0,0,0-.47-.26,5.62,5.62,0,0,0-.65-.18,1,1,0,0,1-.52-.15.29.29,0,0,1-.13-.28.39.39,0,0,1,.13-.33c.07-.08.22-.1.47-.13l.42.05c1.72.1,3.52.16,5.44.16,2.29,0,4.61-.08,6.9-.23a5.28,5.28,0,0,1,.75-.06.88.88,0,0,1,.53.13.83.83,0,0,1,.1.49v.25s0,.07,0,.15l-.23,2.5a1.54,1.54,0,0,1-.09.48c-.05.1-.15.13-.28.16a.38.38,0,0,1-.3-.16.6.6,0,0,1-.1-.4v-.18a.4.4,0,0,0,0-.15,1.6,1.6,0,0,0-.83-1.56,7.13,7.13,0,0,0-3.06-.46h-2.22a4.79,4.79,0,0,0-2,.25,1,1,0,0,0-.44,1V44.6c0,.54,0,.87.2,1a1.43,1.43,0,0,0,.87.19h2.62a6.81,6.81,0,0,0,2.12-.24,2,2,0,0,0,1-.76A3.25,3.25,0,0,0,132,44c.09-.39.27-.59.47-.59a.37.37,0,0,1,.27.18,1.23,1.23,0,0,1,.1.48c0,.05,0,.38-.07,1s-.05,1.22-.05,1.81a10.85,10.85,0,0,0,.12,1.76,2.85,2.85,0,0,0,0,.33.86.86,0,0,1-.13.46.37.37,0,0,1-.32.18c-.25,0-.42-.26-.5-.72a5,5,0,0,0-.15-.76,1.6,1.6,0,0,0-1-.92,6.94,6.94,0,0,0-2.12-.26h-3a1.18,1.18,0,0,0-.77.19,1.26,1.26,0,0,0-.17.81v6.22a1.78,1.78,0,0,0,.52,1.52,3.72,3.72,0,0,0,2.07.39,17,17,0,0,0,3.69-.39A9.18,9.18,0,0,0,134,54.62a5.17,5.17,0,0,0,1.17-1c.35-.43.59-.66.69-.66a.18.18,0,0,1,.2.15.52.52,0,0,1,.11.38,3.18,3.18,0,0,1-.31,1.12,5.38,5.38,0,0,1-.72,1.22A4.63,4.63,0,0,1,133.6,57a4.78,4.78,0,0,1-1.95.36c-.2,0-.92,0-2.19-.11s-2.37-.07-3.39-.07c-1.85,0-3.57.05-5.22.18-.22,0-.37,0-.42,0a.32.32,0,0,1-.22-.13.25.25,0,0,1-.12-.22.53.53,0,0,1,.09-.33,1.57,1.57,0,0,1,.51-.28.07.07,0,0,1,0,0,2.3,2.3,0,0,0,.84-.54,2,2,0,0,0,.55-.91,5.86,5.86,0,0,0,.17-1.76M125,33.87l4.48-4.4a4.48,4.48,0,0,1,.88-.71,1.4,1.4,0,0,1,.62-.18,1.26,1.26,0,0,1,.85.28,1,1,0,0,1,.29.76,1.12,1.12,0,0,1-.22.64,3.05,3.05,0,0,1-.72.61l-5.14,3Zm16.3,19.55,4.44-6.22a.63.63,0,0,0,.12-.26,1.27,1.27,0,0,0,0-.35.89.89,0,0,0,0-.28.92.92,0,0,0-.15-.25l-3.93-5.87a17.55,17.55,0,0,0-1.53-2,5.34,5.34,0,0,0-1.19-1,2,2,0,0,0-.5-.2,3,3,0,0,0-.65-.19l-.07,0c-.43-.13-.63-.28-.63-.46a.36.36,0,0,1,.15-.28.84.84,0,0,1,.4-.1l1.12.1c.72.05,1.45.08,2.18.08.46,0,1,0,1.67-.08s1-.1,1.19-.1a1.3,1.3,0,0,1,.45.1c.1.05.12.15.12.28a.35.35,0,0,1-.32.36,1.94,1.94,0,0,0-.22.07,1.28,1.28,0,0,0-.53.31.84.84,0,0,0-.2.51,1.67,1.67,0,0,0,.18.69,3.44,3.44,0,0,0,.47.81l3.34,4.87,0,0c.18.28.3.4.38.4a.43.43,0,0,0,.22-.1,1.28,1.28,0,0,0,.25-.3l3.54-4.72a8.6,8.6,0,0,0,.55-.87,1.6,1.6,0,0,0,.15-.63,1,1,0,0,0-.17-.56.64.64,0,0,0-.43-.31,3.15,3.15,0,0,0-.4-.13c-.45-.07-.67-.25-.67-.45a.34.34,0,0,1,.12-.28.73.73,0,0,1,.38-.1c.17,0,.55,0,1.12.12a11,11,0,0,0,1.45.13,8.63,8.63,0,0,0,1.07-.08,10,10,0,0,1,1-.07,1.65,1.65,0,0,1,.62.07.27.27,0,0,1,.15.26c0,.2-.17.35-.55.45a1.23,1.23,0,0,1-.25.08c-.1,0-.19.08-.27.11a6,6,0,0,0-1.1.73A11.29,11.29,0,0,0,153.27,39l-4.54,6.15a.54.54,0,0,0-.15.25,1.6,1.6,0,0,0-.05.29,1.81,1.81,0,0,0,.05.25,1,1,0,0,0,.15.25l5.64,8.61a3.84,3.84,0,0,0,.84,1,3.89,3.89,0,0,0,1,.65l.38.07h0c.35.08.52.23.52.43a.36.36,0,0,1-.12.31.87.87,0,0,1-.45.1l-1-.08c-.62,0-1.19,0-1.77,0-.94,0-1.87,0-2.79.13a1.43,1.43,0,0,1-.3,0,.42.42,0,0,1-.32-.11.28.28,0,0,1-.1-.25c0-.2.24-.38.72-.58s.72-.47.72-.77a1.36,1.36,0,0,0-.15-.51,7,7,0,0,0-.45-.82l-3.81-5.8-.3-.44a.32.32,0,0,0-.17-.08.39.39,0,0,0-.28.13,1.32,1.32,0,0,0-.3.39l-4.16,5.78a2.64,2.64,0,0,0-.35.66,2,2,0,0,0-.12.64.82.82,0,0,0,.27.56,1.39,1.39,0,0,0,.67.38,4.33,4.33,0,0,0,.45.08c.3,0,.45.15.45.38a.27.27,0,0,1-.15.25.71.71,0,0,1-.45.11l-1.17-.08c-.69,0-1.32-.08-1.92-.08s-1,0-1.5.08a8.46,8.46,0,0,1-.92.1c-.15,0-.22,0-.27-.1a.51.51,0,0,1,0-.58,1.85,1.85,0,0,1,.53-.21.76.76,0,0,0,.27,0,2.19,2.19,0,0,0,.35-.13,3.79,3.79,0,0,0,1.37-.94,13.43,13.43,0,0,0,1.62-2m20.2-.23V40a5.24,5.24,0,0,0-.23-1.84,1.89,1.89,0,0,0-.72-.91,2.9,2.9,0,0,0-1.12-.44h0a1.1,1.1,0,0,1-.55-.18.35.35,0,0,1-.12-.3.36.36,0,0,1,.12-.31,1.18,1.18,0,0,1,.5-.1l1.18.1a17.88,17.88,0,0,0,2,.11c1.1,0,2.15-.06,3.19-.16.21,0,.3-.05.33-.05a.6.6,0,0,1,.38.13.44.44,0,0,1,.12.28.35.35,0,0,1-.12.3,2.28,2.28,0,0,1-.63.26,3.6,3.6,0,0,0-.65.23,1.56,1.56,0,0,0-.42.25,1.7,1.7,0,0,0-.58.82A7,7,0,0,0,164,40v13.2a7.11,7.11,0,0,0,.2,1.91,2.07,2.07,0,0,0,.78.94,2.46,2.46,0,0,0,1.12.43h0a1.4,1.4,0,0,1,.57.18.32.32,0,0,1,.13.28.36.36,0,0,1-.13.33.92.92,0,0,1-.55.1,15.35,15.35,0,0,1-1.59-.1c-.78,0-1.37-.08-1.82-.08a27.26,27.26,0,0,0-3,.16c-.2,0-.32,0-.37,0a.69.69,0,0,1-.38-.1.36.36,0,0,1-.15-.28c0-.23.2-.41.63-.56a.08.08,0,0,1,.05,0l.6-.23a3.68,3.68,0,0,0,.44-.34,2,2,0,0,0,.68-.91,5.69,5.69,0,0,0,.2-1.76m26.4,2.11a12.39,12.39,0,0,1-3.77,1.81,16,16,0,0,1-4.56.61c-3.34,0-6-.94-7.9-2.88A10.54,10.54,0,0,1,168.75,47a12.66,12.66,0,0,1,.83-4.64A11.21,11.21,0,0,1,172,38.59a9.39,9.39,0,0,1,3.36-2.22,12.27,12.27,0,0,1,4.34-.71,13.55,13.55,0,0,1,2.74.26,11.83,11.83,0,0,1,2.59.83,8.07,8.07,0,0,1,1.3.72,2.76,2.76,0,0,0,.93.46.79.79,0,0,0,.39-.13.93.93,0,0,1,.35-.15c.1,0,.15.05.2.15a1.15,1.15,0,0,1,.13.46l.29,3.16a.8.8,0,0,1,0,.25,1.34,1.34,0,0,1,0,.36,1,1,0,0,1-.1.43.26.26,0,0,1-.25.11c-.25,0-.5-.31-.78-.92a8.34,8.34,0,0,0-.5-1,9.32,9.32,0,0,0-3.24-3.11,7.92,7.92,0,0,0-4.08-1.09,7.83,7.83,0,0,0-6,2.54,9.64,9.64,0,0,0-2.31,6.7,12.25,12.25,0,0,0,2.44,7.87,7.67,7.67,0,0,0,6.23,3.06,9.1,9.1,0,0,0,3.36-.63,9.21,9.21,0,0,0,2.94-1.79,7.06,7.06,0,0,0,1.15-1.45c.38-.59.65-.89.83-.89a.27.27,0,0,1,.2.13.49.49,0,0,1,.07.28.87.87,0,0,1,0,.2.83.83,0,0,1-.08.31ZM47.81,54a3.42,3.42,0,0,0,.07.84.61.61,0,0,0,.25.39,5.48,5.48,0,0,0,1.92.73,12.44,12.44,0,0,0,2.82.31,11.77,11.77,0,0,0,1.92-.15v1a17.81,17.81,0,0,1-2.89.23c-1,0-2.15-.05-3.37-.1l-2.1-.08a9.38,9.38,0,0,0-1.89.18c-.62.1-.94.18-1,.18a.62.62,0,0,1-.37-.13c-.13-.1-.2-.18-.2-.28a.37.37,0,0,1,.15-.33,2,2,0,0,1,.62-.28.45.45,0,0,0,.17,0,3.14,3.14,0,0,0,.63-.33,2.13,2.13,0,0,0,.57-.84,5.61,5.61,0,0,0,.18-1.56V39.46a4,4,0,0,0-.23-1.59,1.94,1.94,0,0,0-.8-.78,2.75,2.75,0,0,0-.87-.29l-.07,0a1.57,1.57,0,0,1-.55-.15.31.31,0,0,1-.13-.28.3.3,0,0,1,.18-.26,1,1,0,0,1,.5-.1s.34,0,1,0,1.4.08,2.07.08,1.4,0,2.62-.08,2.14,0,2.82,0a20.57,20.57,0,0,1,2.89.18v1.17a13.86,13.86,0,0,0-3.92-.54,5.17,5.17,0,0,0-2.49.39,1.77,1.77,0,0,0-.57,1.58Z"/><path class="cls-1" d="M32.25,65.55V64.2H1.86V1.82H32.25V.45H.4v65.1ZM3.44,62.41H32.25V33H3.44ZM9.53,42.25a11.17,11.17,0,0,0-.36-3.15A3.25,3.25,0,0,0,8,37.36a1.49,1.49,0,0,0-.63-.28l0,0h0c-.34-.1-.51-.28-.51-.48a.36.36,0,0,1,.15-.32.65.65,0,0,1,.43-.1l.69.05c.36,0,.7,0,1,0h.24a1,1,0,0,1,.15,0h.24A1.31,1.31,0,0,1,11,37v0l7.14,15.43a.89.89,0,0,0,.19.27.23.23,0,0,0,.2.1.21.21,0,0,0,.19-.1,2.38,2.38,0,0,0,.22-.32l7.53-15.58.07-.09a.66.66,0,0,1,.65-.4h.61c.29,0,.62,0,.95-.06s.59-.07.66-.07a.79.79,0,0,1,.46.1.34.34,0,0,1,.15.3c0,.2-.17.37-.54.47a2,2,0,0,0-.43.1.8.8,0,0,0-.3.18,1.54,1.54,0,0,0-.63.72,3,3,0,0,0-.2,1.29v.37L28.21,53v.2c0,1.47.39,2.36,1,2.71a4.29,4.29,0,0,0,.59.2s.07,0,.1,0c.36.1.53.23.53.4a.3.3,0,0,1-.17.3,1,1,0,0,1-.49.12l-1.36,0c-.66-.05-1.22-.07-1.68-.07a8.08,8.08,0,0,0-1.36.1l-.76.07a.51.51,0,0,1-.31-.07.27.27,0,0,1-.13-.25.4.4,0,0,1,.13-.3.86.86,0,0,1,.48-.25.88.88,0,0,0,.15,0l.2-.1a1.25,1.25,0,0,0,.65-.67A3.25,3.25,0,0,0,26,54V53.4a5.51,5.51,0,0,1,0-.64l-.17-9.41c0-.52-.05-.89-.09-1.12s-.15-.32-.25-.32-.22.07-.37.25a5.06,5.06,0,0,0-.41.74L18.52,55.69a3.21,3.21,0,0,1-.32.55.47.47,0,0,1-.32.15.42.42,0,0,1-.34-.18,1.13,1.13,0,0,1-.29-.52l-6-13.06a1.63,1.63,0,0,0-.16-.3c-.08-.08-.13-.1-.18-.1s-.19.28-.24.85-.12,1.66-.17,3.26l-.14,4c0,.35,0,.69,0,1.06v1.52a6.4,6.4,0,0,0,.22,2,2,2,0,0,0,.85,1,2.16,2.16,0,0,0,.8.3s0,0,0,0h0c.41.1.63.28.63.48a.29.29,0,0,1-.17.27.69.69,0,0,1-.44.1,2.8,2.8,0,0,1-.53-.05c-.93-.07-1.81-.12-2.64-.12a6.23,6.23,0,0,0-1.19.1l-.66.07A.61.61,0,0,1,7,56.94a.43.43,0,0,1-.14-.32A.49.49,0,0,1,7,56.24c.05,0,.08,0,.1,0a.32.32,0,0,1,.12,0,3,3,0,0,0,1-.55,1.37,1.37,0,0,0,.37-.72,25.44,25.44,0,0,0,.61-4.62c.19-2.47.29-5.16.29-8m-6-10.89H32.25V3.54H3.54ZM8.46,16.63a12.89,12.89,0,0,1,.78-4.53,10.81,10.81,0,0,1,2.21-3.69,9.09,9.09,0,0,1,3.07-2.13,10.49,10.49,0,0,1,4-.73,11.33,11.33,0,0,1,2.5.28,12.86,12.86,0,0,1,2.39.79,9,9,0,0,1,1.17.7,2.26,2.26,0,0,0,.85.47.72.72,0,0,0,.36-.15,1,1,0,0,1,.32-.12.24.24,0,0,1,.2.15,1.69,1.69,0,0,1,.1.45l.26,3.08a.74.74,0,0,1,0,.25,1.78,1.78,0,0,1,0,.35.74.74,0,0,1-.07.4.26.26,0,0,1-.24.1c-.23,0-.47-.3-.71-.87a8.4,8.4,0,0,0-.46-1,9.13,9.13,0,0,0-3-3,6.82,6.82,0,0,0-3.72-1.07A7,7,0,0,0,13,8.86a9.82,9.82,0,0,0-2.12,6.55,12.39,12.39,0,0,0,2.24,7.66,6.8,6.8,0,0,0,5.7,3,8.22,8.22,0,0,0,3.07-.63,8.6,8.6,0,0,0,2.7-1.77,6.22,6.22,0,0,0,1-1.39c.34-.6.58-.87.76-.87a.18.18,0,0,1,.17.1.6.6,0,0,1,.07.3.45.45,0,0,1,0,.17,1.45,1.45,0,0,1,0,.3L26,24.74a11.17,11.17,0,0,1-3.46,1.79,13.76,13.76,0,0,1-4.16.6,9.57,9.57,0,0,1-7.26-2.81,10.91,10.91,0,0,1-2.65-7.69"/></svg>