<?xml version="1.0" encoding="utf-8"?>
<!-- Generator: Adobe Illustrator 23.1.1, SVG Export Plug-In . SVG Version: 6.00 Build 0)  -->
<svg version="1.1" xmlns="http://www.w3.org/2000/svg" xmlns:xlink="http://www.w3.org/1999/xlink" x="0px" y="0px"
	 viewBox="0 0 290 42" style="enable-background:new 0 0 290 42;" xml:space="preserve">
<style type="text/css">
	.st0{fill:#EDEDED;}
	.st1{fill:#B23030;}
	.st2{fill:#FFFFFF;}
	.st3{fill:#F16F70;}
	.st4{fill:#EE3E3D;}
	.st5{fill:none;stroke:#231F20;stroke-width:2;stroke-miterlimit:10;}
	.st6{fill:#231F20;}
	.st7{fill:#5D5D5D;}
	.st8{fill:#BCE2D3;}
	.st9{fill:#A6A6A6;}
	.st10{fill:#CCDEDC;}
	.st11{fill:#8AD6CC;}
	.st12{fill:none;stroke:#8AD6CC;stroke-width:2.1499;stroke-miterlimit:10;}
	.st13{fill:none;}
	.st14{fill:#4D4F4E;}
	.st15{fill:#838686;}
	.st16{fill:#595E5D;}
	.st17{fill:none;stroke:#4D4F4E;stroke-width:2;stroke-miterlimit:10;}
	.st18{fill:#303635;}
	.st19{fill:none;stroke:#4D4F4E;stroke-width:3;stroke-miterlimit:10;}
	.st20{clip-path:url(#SVGID_2_);}
	.st21{clip-path:url(#SVGID_4_);}
	.st22{clip-path:url(#SVGID_6_);}
	.st23{clip-path:url(#SVGID_8_);}
	.st24{clip-path:url(#SVGID_10_);}
	.st25{opacity:0.24;fill:#FFFFFF;}
	.st26{clip-path:url(#SVGID_12_);fill:#FFFFFF;}
	.st27{opacity:0.2;}
	.st28{fill:none;stroke:#8AD6CC;stroke-width:3;stroke-miterlimit:10;}
	.st29{fill:none;stroke:#CCDEDC;stroke-miterlimit:10;}
</style>
<g id="Layer_1">
	<g id="Layer_3">
	</g>
	<g>
		<path class="st3" d="M15.55,5.95c0,0-10.28,4.79-6.19,13.22c0,0,2.3,3.13,5.56,6.64c0,0,3.51,3.49,4.34,4.97
			c0,0,3.38,4.1-1.15,7.48c0,0-3.96,3.19-10.15-0.38c0,0-4.28-2.36-4.53-9.58l-2.74,4.85c0,0,7.72,8.24,19.15,7.73
			c0,0,9.9-0.7,10.15-8.24c0,0,0.45-2.68-4.98-8.05c0,0-7.92-9-9.39-11.69C15.61,12.91,13.12,9.02,15.55,5.95z"/>
		<path class="st4" d="M30.4,36.53c0,0,10.28-4.8,6.18-13.23c0,0-2.3-3.13-5.56-6.63c0,0-3.52-3.49-4.35-4.97
			c0,0-2.76-4.09,0.89-7.29c0,0,3.47-3.86,9.57-0.7c0,0,3.47,1.73,3.51,5.11c0.02,1.56,0,2.45-2.55,6.58l8.05-6.96
			c0,0-1.52-0.28-4.85-2.81c-3.47-2.64-5.88-5.08-15.58-4.57c0,0-9.52,1.25-9.76,8.79c0,0-0.44,2.68,4.99,8.04c0,0,7.93,9,9.4,11.68
			C30.33,29.57,32.83,33.46,30.4,36.53z"/>
		<line class="st5" x1="55.83" y1="0.55" x2="55.83" y2="41.9"/>
		<path class="st6" d="M82.01,6.09l2.3-3.17c0,0-4.27-4.27-11.82-2.23c0,0-6.44,2.04-3.69,8.71c0,0,1.3,2.78,7.16,3.66
			c0,0,4.79,0.45,5.25,2.3c0,0,0.55,2.36-2.78,3.27c0,0-3.4,0.91-8.22-2.72l-2.33,3.3c0,0,3.01,2.53,6.15,2.98
			c0,0,6.9,1.46,10.04-2.23c0,0,2.82-3.69,0.26-7.61c0,0-0.84-2.04-5.89-3.01c0,0-3.37-0.55-4.99-1.3c0,0-2.33-1.1-0.45-3.17
			C72.98,4.86,76.7,2.14,82.01,6.09z"/>
		<path class="st7" d="M73.02,34l0.77-1.07c0,0-1.44-1.43-3.97-0.75c0,0-2.16,0.69-1.24,2.92c0,0,0.43,0.93,2.4,1.23
			c0,0,1.61,0.15,1.76,0.77c0,0,0.18,0.79-0.94,1.1c0,0-1.14,0.3-2.76-0.91l-0.78,1.11c0,0,1.01,0.85,2.07,1
			c0,0,2.32,0.49,3.37-0.75c0,0,0.95-1.24,0.09-2.55c0,0-0.28-0.68-1.98-1.01c0,0-1.13-0.18-1.67-0.43c0,0-0.78-0.37-0.15-1.07
			C69.99,33.58,71.24,32.67,73.02,34z"/>
		<polygon class="st6" points="110.47,4.15 110.47,0.43 94.54,0.43 94.54,22.12 110.47,22.12 110.47,18.43 98.65,18.43 98.65,13.25 
			109.11,13.25 109.11,9.49 98.65,9.49 98.65,4.12 		"/>
		<polygon class="st7" points="110.61,33.36 110.61,32.12 105.33,32.12 105.33,39.31 110.61,39.31 110.61,38.08 106.7,38.08 
			106.7,36.37 110.16,36.37 110.16,35.13 106.7,35.13 106.7,33.35 		"/>
		<polygon class="st6" points="119.96,22.02 124.07,22.02 124.07,11.27 130.77,19.27 137.61,11.27 137.61,22.02 141.68,22.02 
			141.68,0.56 141.46,0.56 130.82,13.02 120.22,0.56 119.96,0.56 		"/>
		<rect x="152.86" y="0.56" class="st6" width="4.18" height="21.53"/>
		<rect x="133.94" y="27.58" class="st6" width="1.91" height="11.78"/>
		<rect x="214.89" y="27.57" class="st6" width="1.91" height="11.78"/>
		<rect x="252.84" y="0.46" class="st6" width="4.18" height="21.53"/>
		<polygon class="st6" points="168.27,22.05 172.32,22.05 172.32,9.23 186.56,22.05 187.02,22.05 187.02,0.52 182.87,0.52 
			182.87,13.54 168.66,0.52 168.27,0.52 		"/>
		<polygon class="st6" points="195.3,22.05 199.84,22.05 206.6,8.49 213.37,22.05 217.84,22.05 206.8,0.52 206.35,0.52 		"/>
		<path class="st6" d="M235.39,0.43c7.61,0.87,6.9,7.35,6.9,7.35c0,5.57-4.47,6.99-4.47,6.99l5.34,7.25h-4.92l-4.95-6.83h-4.18v6.83
			h-4.05V0.43H235.39z M229.11,4.12v7.48h6.31c0,0,2.95-0.68,2.78-3.89c0,0,0.06-3.59-2.95-3.59H229.11z"/>
		<path class="st7" d="M99.75,32.12c2.53,0.29,2.29,2.44,2.29,2.44c0,1.85-1.49,2.33-1.49,2.33l1.78,2.41h-1.64l-1.65-2.27h-1.39
			v2.27h-1.35v-7.18H99.75z M97.66,33.35v2.49h2.1c0,0,0.98-0.23,0.93-1.29c0,0,0.02-1.19-0.98-1.19H97.66z"/>
		<path class="st6" d="M289.32,11.27c0,6.17-5,11.17-11.17,11.17c-6.17,0-11.17-5-11.17-11.17c0-6.17,5-11.17,11.17-11.17
			C284.32,0.1,289.32,5.1,289.32,11.27z M278.16,3.94c-3.95,0-7.16,3.33-7.16,7.43c0,4.1,3.21,7.43,7.16,7.43
			c3.95,0,7.16-3.33,7.16-7.43C285.32,7.27,282.11,3.94,278.16,3.94z"/>
		<path class="st6" d="M152.75,33.46c0,3.25-2.64,5.89-5.89,5.89c-3.25,0-5.89-2.64-5.89-5.89c0-3.25,2.64-5.89,5.89-5.89
			C150.12,27.57,152.75,30.21,152.75,33.46z M146.86,29.59c-2.09,0-3.78,1.75-3.78,3.92s1.69,3.92,3.78,3.92
			c2.09,0,3.78-1.75,3.78-3.92S148.95,29.59,146.86,29.59z"/>
		<path class="st7" d="M84.4,35.67c0,2.08-1.68,3.76-3.76,3.76c-2.08,0-3.76-1.68-3.76-3.76c0-2.08,1.68-3.76,3.76-3.76
			C82.72,31.91,84.4,33.59,84.4,35.67z M80.64,33.2c-1.33,0-2.41,1.12-2.41,2.5c0,1.38,1.08,2.5,2.41,2.5c1.33,0,2.41-1.12,2.41-2.5
			C83.05,34.32,81.97,33.2,80.64,33.2z"/>
		<path class="st7" d="M90.94,32.12c1.9,0.1,1.82,1.58,1.82,1.58c0.13,1.69-1.13,1.83-1.13,1.83c1.57,0.29,1.47,1.77,1.47,1.77
			c-0.04,2.14-2.22,2-2.22,2h-3.34v-7.18H90.94z M88.92,33.34v1.69h1.71c0,0,0.81,0.01,0.81-0.85c0,0,0.04-0.85-0.67-0.85H88.92z
			 M88.92,36.24v1.86h1.9c0,0,0.9,0.01,0.9-0.93c0,0,0.09-0.78-0.84-0.93H88.92z"/>
		<polygon points="117.76,27.58 122.45,39.34 124.44,39.34 129.13,27.58 127.03,27.58 123.45,36.91 119.78,27.58 		"/>
		<polygon class="st6" points="157.76,27.58 157.76,39.35 165.69,39.35 165.69,37.55 159.67,37.55 159.67,27.58 		"/>
		<polygon class="st6" points="170.48,27.58 170.48,39.36 178.4,39.36 178.4,37.57 172.41,37.57 172.41,33.76 176.89,33.76 
			176.89,31.98 172.39,31.98 172.39,29.35 178.4,29.35 178.4,27.58 		"/>
		<polygon class="st6" points="183.07,27.58 183.07,39.35 185.01,39.35 185.01,30.99 192.25,39.35 193.24,39.35 193.24,27.58 
			191.28,27.58 191.28,35.94 184.13,27.58 		"/>
		<path class="st6" d="M208.02,32.29c0,0-0.74-3.22-4.43-2.91c0,0-2.74,0.47-3.16,3.27c0,0-0.52,2.56,1.49,4.18
			c0,0,1.26,1.1,3.38,0.63c0,0,2.11-0.56,2.72-2.81l1.85,0.6c0,0-0.46,2.9-4.09,3.96c0,0-3.3,0.72-5.27-1.1c0,0-2.54-1.72-2.13-5.71
			c0,0,0.28-2.69,3.27-4.28c0,0,2.66-1.34,5.59,0.22c0,0,2.07,1.09,2.63,3.38L208.02,32.29z"/>
		<polygon class="st6" points="221.61,39.33 223.57,39.33 227.21,29.84 230.89,39.33 232.8,39.33 228.15,27.58 226.24,27.58 		"/>
		<polygon class="st6" points="263.66,39.33 265.61,39.33 269.26,29.84 272.93,39.33 274.84,39.33 270.2,27.58 268.29,27.58 		"/>
		<polygon class="st6" points="237.09,27.58 241.09,34.52 241.09,39.36 242.54,39.36 242.54,34.49 246.59,27.58 244.97,27.58 
			241.84,33.11 238.72,27.58 		"/>
		<path class="st6" d="M258.31,27.58c3.22,0.23,3.21,3.2,3.21,3.2c0,3.2-2.93,3.51-2.93,3.51h-4.08v5.07h-1.93V27.58H258.31z
			 M254.48,29.32v3.25h3.64c0,0,1.44-0.18,1.57-1.63c0,0-0.11-1.4-1.7-1.63H254.48z"/>
		<polygon class="st6" points="279.41,27.58 279.41,29.39 285.82,29.39 279.41,38.42 279.41,39.35 288.48,39.35 288.48,37.51 
			282.08,37.51 288.48,28.51 288.48,27.58 		"/>
	</g>
</g>
<g id="Guías">
</g>
</svg>
