<svg id="Layer_1" data-name="Layer 1" xmlns="http://www.w3.org/2000/svg" viewBox="0 0 30 26"><defs><style>.cls-1{fill:#8ad6cc;}</style></defs><title>twitter</title><g id="Layer_3" data-name="Layer 3"><path class="cls-1" d="M28.83,3.85a.22.22,0,0,1-.07-.23,2.37,2.37,0,0,0,0-.75,2.07,2.07,0,0,0-3-1.37,13.14,13.14,0,0,1-1.25.61A.7.7,0,0,1,23.68,2a7.32,7.32,0,0,0-1.3-.68A6.33,6.33,0,0,0,21,1a8.78,8.78,0,0,0-3,.1,5.29,5.29,0,0,0-.71.2A7,7,0,0,0,15.09,2.6a7.59,7.59,0,0,0-.84.86,7.24,7.24,0,0,0-1.49,3c-.06.3-.06.3-.35.23A11.93,11.93,0,0,1,9.22,5.38,12,12,0,0,1,6.06,2.69,2.17,2.17,0,0,0,4.42,1.8a2,2,0,0,0-1.85,1,6.8,6.8,0,0,0-1,3.31A6.83,6.83,0,0,0,1.9,8.56a.37.37,0,0,1,0,.34,2.15,2.15,0,0,0-.33,1.18,6.08,6.08,0,0,0,.09,1.13A7,7,0,0,0,3,14.37a1.32,1.32,0,0,1,.38.88,3.52,3.52,0,0,0,.55,1.68,6.84,6.84,0,0,0,1.17,1.61s.07.06.06.11-.08,0-.13.05a3.81,3.81,0,0,1-.59.07,7.49,7.49,0,0,1-1.16,0,3.69,3.69,0,0,0-.94,0A2,2,0,0,0,.75,19.89c-.08.15-.05.33-.12.49v.78A1.92,1.92,0,0,0,1.75,22.7,17.08,17.08,0,0,0,4,23.86a14.15,14.15,0,0,0,5.66,1.19v0h1.54v0a13.42,13.42,0,0,0,2-.12A15.75,15.75,0,0,0,23,19.42a16.72,16.72,0,0,0,2.76-4.63,16.91,16.91,0,0,0,1.2-5.66.39.39,0,0,1,.14-.3A8.76,8.76,0,0,0,28.42,7.4a3.23,3.23,0,0,0,.95-1.73V5A1.65,1.65,0,0,0,28.83,3.85ZM25.94,7a7.64,7.64,0,0,1-1,.82.28.28,0,0,0-.12.27,14.73,14.73,0,0,1-4.43,11,13.36,13.36,0,0,1-7.34,3.74,14.56,14.56,0,0,1-8.47-1,14.84,14.84,0,0,1-2-1,10.32,10.32,0,0,0,7.48-2.11,5.22,5.22,0,0,1-4.76-3.53,5.19,5.19,0,0,0,2.32-.1A5.14,5.14,0,0,1,3.6,10a5.37,5.37,0,0,0,2.31.62A5.08,5.08,0,0,1,3.69,7a5,5,0,0,1,.64-3.12l.15.17a14.4,14.4,0,0,0,9,5c.38,0,.76.07,1.13.12.19,0,.24,0,.2-.21a4.55,4.55,0,0,1,.05-2.14,4.93,4.93,0,0,1,3.54-3.68A4.89,4.89,0,0,1,23.31,4.4a.38.38,0,0,0,.39.11,10.69,10.69,0,0,0,2.74-1l.21-.11A4.93,4.93,0,0,1,24.49,6.1a4.29,4.29,0,0,0,1-.14,7.7,7.7,0,0,0,.91-.25c.3-.09.6-.21.95-.33A9.86,9.86,0,0,1,25.94,7Z"/></g></svg>